<?xml version="1.0" encoding="UTF-8" standalone="no"?>
<svg
   xmlns:dc="http://purl.org/dc/elements/1.1/"
   xmlns:cc="http://creativecommons.org/ns#"
   xmlns:rdf="http://www.w3.org/1999/02/22-rdf-syntax-ns#"
   xmlns:svg="http://www.w3.org/2000/svg"
   xmlns="http://www.w3.org/2000/svg"
   version="1.1"
   id="svg2"
   viewBox="0 0 921.25985 921.25984"
   height="260mm"
   width="260mm">
  <defs
     id="defs4" />
  <metadata
     id="metadata7">
    <rdf:RDF>
      <cc:Work
         rdf:about="">
        <dc:format>image/svg+xml</dc:format>
        <dc:type
           rdf:resource="http://purl.org/dc/dcmitype/StillImage" />
        <dc:title></dc:title>
      </cc:Work>
    </rdf:RDF>
  </metadata>
  <g
     transform="translate(-100.78577,165.1834)"
     id="layer1">
    <path
       id="path4240"
       d="m 175.52265,466.63065 c -16.90341,-4.54589 -30.16135,-17.99228 -34.62066,-35.11275 -1.293,-4.96415 -1.49167,-27.65665 -1.49167,-170.38031 0,-105.37393 0.35959,-166.592695 0.99879,-170.039905 3.39054,-18.28523 19.49293,-34.376469 37.89203,-37.865779 2.96019,-0.56139 13.42074,-1.02071 23.24567,-1.02071 l 17.86351,0 0,15.7899 c 0,17.817219 1.32398,24.926259 5.99691,32.200214 15.55928,24.21973 48.83688,25.46905 66.21866,2.48599 6.24924,-8.263065 7.05656,-11.712315 7.54269,-32.226105 l 0.43249,-18.249999 63.90462,0 63.90463,0 0,16.3185 c 0,17.609849 1.05903,23.489839 5.64194,31.325349 3.46737,5.928265 11.49172,13.065245 18.13839,16.132575 5.01565,2.31464 7.01209,2.64242 16.21967,2.66301 9.5787,0.0214 11.02275,-0.23119 16.45775,-2.87888 10.70629,-5.21563 18.75911,-14.56624 21.95399,-25.492055 1.16423,-3.98141 1.58826,-9.78817 1.58826,-21.749999 l 0,-16.3185 18.7899,0 c 20.92885,0 26.60317,0.96024 36.33933,6.14956 7.00577,3.73404 15.69041,12.587599 19.26291,19.637579 5.5583,10.96879 5.60786,11.6385 5.60786,75.785405 l 0,59.15234 -8.75,-3.31462 c -4.8125,-1.82304 -12.0125,-4.09342 -16,-5.04528 l -7.25,-1.73067 0,-11.31715 0,-11.31716 -192.01244,0 -192.01245,0 0.26245,114.92688 c 0.26103,114.3115 0.27348,114.94166 2.32423,117.68821 1.13398,1.51873 3.30436,3.68914 4.82306,4.82312 2.7398,2.04576 3.53412,2.06384 102.1485,2.32605 l 99.38722,0.26426 4.69215,9.08487 c 5.49665,10.64252 13.51753,22.13665 22.26665,31.90868 l 6.24749,6.97793 -116.31343,-0.0658 c -98.27214,-0.0556 -117.14911,-0.29055 -121.7011,-1.51474 z m 27.88767,-102.41945 0,-24 32,0 32,0 0,24 0,24 -32,0 -32,0 z m 96,0 0,-24 32,0 32,0 0,24 0,24 -32,0 -32,0 z m -96,-64 0,-24 32,0 32,0 0,24 0,24 -32,0 -32,0 z m 96,0 0,-24 32,0 32,0 0,24 0,24 -32,0 -32,0 z m -96,-64 0,-24 32,0 32,0 0,24 0,24 -32,0 -32,0 z m 96,0 0,-24 32,0 32,0 0,24 0,24 -32,0 -32,0 z m 96,0 0,-24 32,0 c 17.6,0 32,0.19037 32,0.42305 0,0.23267 -4.3299,2.70252 -9.62201,5.48854 -5.29211,2.78602 -13.22609,7.65815 -17.63108,10.82695 -9.19711,6.61609 -23.62311,19.98466 -28.74691,26.63975 -2.27836,2.95926 -4.28534,4.55921 -5.75,4.58385 l -2.25,0.0379 0,-24 z m -144,-137.307365 c -4.90822,-1.54705 -13.27886,-10.21482 -14.78388,-15.30866 -1.68489,-5.70261 -1.68489,-57.065349 0,-62.767959 2.53918,-8.59402 13.53895,-16.6160196 22.78388,-16.6160196 9.24493,0 20.2447,8.0219996 22.78388,16.6160196 1.68489,5.70261 1.68489,57.065349 0,62.767959 -1.62291,5.49284 -9.90706,13.77699 -15.3999,15.3999 -4.9145,1.452045 -10.59461,1.418355 -15.38398,-0.0912 z m 208,0 c -4.90822,-1.54705 -13.27886,-10.21482 -14.78388,-15.30866 -0.82535,-2.79345 -1.21612,-12.93822 -1.21612,-31.571859 0,-32.27408 0.38975,-34.27994 7.98816,-41.11157 7.06366,-6.3508396 14.53534,-8.1023396 23.39582,-5.4844296 5.49284,1.62291 13.77699,9.9070596 15.3999,15.3998996 0.82446,2.79043 1.21612,12.89785 1.21612,31.38398 0,18.486129 -0.39166,28.593549 -1.21612,31.383979 -1.62291,5.49284 -9.90706,13.77699 -15.3999,15.3999 -4.9145,1.452045 -10.59461,1.418355 -15.38398,-0.0912 z"
       style="fill:#007800" />
    <g
       transform="translate(38.624581,-287.86527)"
       id="text4242"
       style="font-style:normal;font-variant:normal;font-weight:500;font-stretch:normal;font-size:1586.27502441px;line-height:125%;font-family:'Helvetica Neue';-inkscape-font-specification:'Helvetica Neue, Medium';text-align:start;letter-spacing:0px;word-spacing:0px;writing-mode:lr-tb;text-anchor:start;fill:#c44812;fill-opacity:1;stroke:none;stroke-width:1px;stroke-linecap:butt;stroke-linejoin:miter;stroke-opacity:1">
      <path
         id="path4297"
         style="font-style:italic;font-variant:normal;font-weight:bold;font-stretch:normal;font-size:279.72497559px;line-height:125%;font-family:'.Helvetica Neue Desk UI';-inkscape-font-specification:'.Helvetica Neue Desk UI, Bold Italic';text-align:start;writing-mode:lr-tb;text-anchor:start;fill:#c44812;fill-opacity:1"
         d="m 516.76042,602.02731 43.91682,0 q 0.27973,-18.18212 -5.59449,-31.88865 -5.87423,-13.98624 -16.7835,-23.21717 -10.62955,-9.51065 -25.45498,-14.26597 -14.82542,-4.75533 -32.16837,-4.75533 -25.17525,0 -45.59517,9.79038 -20.1402,9.79037 -34.40617,26.57387 -13.98625,16.50377 -21.53882,38.32232 -7.55258,21.81855 -7.55258,46.15462 0,42.79792 22.93745,65.45565 23.21717,22.65772 65.73537,22.65772 16.22405,0 29.93057,-4.19587 13.98625,-3.91615 25.17525,-12.86735 11.46872,-9.23093 20.41992,-23.77663 9.23093,-14.5457 15.94433,-35.52507 l -43.91683,0 q -1.39862,7.8323 -5.59449,15.10515 -4.19588,7.27285 -10.34983,12.86735 -6.15395,5.31477 -14.26597,8.67147 -7.8323,3.07698 -16.7835,3.07698 -12.02818,0 -20.69965,-4.19588 -8.39175,-4.19587 -13.98625,-11.189 -5.31477,-7.27284 -8.11202,-16.50377 -2.51753,-9.23092 -2.51753,-19.58075 0,-14.26597 3.91615,-29.09139 3.91615,-15.10515 11.74845,-27.13333 8.11203,-12.3079 20.41992,-19.86047 12.58763,-7.8323 29.37113,-7.8323 15.94432,0 25.73469,9.51065 10.0701,9.23092 10.0701,27.69277 z" />
      <path
         id="path4299"
         style="font-style:italic;font-variant:normal;font-weight:bold;font-stretch:normal;font-size:279.72497559px;line-height:125%;font-family:'.Helvetica Neue Desk UI';-inkscape-font-specification:'.Helvetica Neue Desk UI, Bold Italic';text-align:start;writing-mode:lr-tb;text-anchor:start;fill:#c44812;fill-opacity:1"
         d="m 608.8555,532.65552 -41.3993,199.72363 43.6371,0 15.10515,-71.60959 54.26664,0 q 15.6646,0 29.65085,-4.75533 13.98625,-4.75532 24.6158,-13.70652 10.90927,-8.9512 17.06322,-21.81855 6.43368,-13.14707 6.43368,-29.65085 0,-16.50377 -5.31478,-27.69277 -5.03505,-11.189 -14.26597,-17.9024 -9.23092,-6.7134 -22.09827,-9.51065 -12.58763,-3.07697 -27.69278,-3.07697 l -80.00134,0 z m 24.6158,93.98759 12.3079,-59.86115 37.48314,0 q 5.87423,0 11.189,1.1189 5.5945,1.1189 10.0701,3.91615 4.4756,2.51753 6.99313,7.55258 2.79725,4.75532 2.79725,12.3079 0,17.9024 -9.79038,26.57387 -9.51065,8.39175 -26.29414,8.39175 l -44.756,0 z" />
      <path
         id="path4301"
         style="font-style:italic;font-variant:normal;font-weight:bold;font-stretch:normal;font-size:279.72497559px;line-height:125%;font-family:'.Helvetica Neue Desk UI';-inkscape-font-specification:'.Helvetica Neue Desk UI, Bold Italic';text-align:start;writing-mode:lr-tb;text-anchor:start;fill:#c44812;fill-opacity:1"
         d="m 832.90649,569.57921 -34.12645,162.79994 44.19655,0 34.12644,-162.79994 59.86115,0 7.8323,-36.92369 -166.71609,0 -7.8323,36.92369 62.6584,0 z" />
      <g
         id="text4303"
         style="font-style:normal;font-variant:normal;font-weight:500;font-stretch:normal;font-size:106.06052399px;line-height:125%;font-family:'Helvetica Neue';-inkscape-font-specification:'Helvetica Neue, Medium';text-align:start;letter-spacing:0px;word-spacing:0px;writing-mode:lr-tb;text-anchor:start;fill:#c44812;fill-opacity:1;stroke:none;stroke-width:1px;stroke-linecap:butt;stroke-linejoin:miter;stroke-opacity:1">
        <path
           id="path4141"
           style="font-style:normal;font-variant:normal;font-weight:bold;font-stretch:normal;font-size:106.06005859px;line-height:125%;font-family:'.Helvetica Neue Desk UI';-inkscape-font-specification:'.Helvetica Neue Desk UI, Bold';text-align:start;writing-mode:lr-tb;text-anchor:start;fill:#703c24;fill-opacity:1"
           d="m 121.34716,861.70735 0,-47.72703 11.87873,0 q 6.15148,0 10.28782,1.80302 4.2424,1.69696 6.78785,4.98483 2.54544,3.28786 3.60604,7.9545 1.16666,4.56058 1.16666,10.28783 0,6.25754 -1.5909,10.606 -1.5909,4.34846 -4.2424,7.10602 -2.65151,2.65151 -6.04543,3.81817 -3.39392,1.16666 -6.99996,1.16666 l -14.84841,0 z m -16.65143,-61.72696 0,75.72689 32.6665,0 q 8.69692,0 15.06053,-2.86363 6.46966,-2.96968 10.71206,-8.06056 4.34847,-5.09088 6.46967,-12.09085 2.1212,-6.99996 2.1212,-15.27265 0,-9.43934 -2.6515,-16.4393 -2.54545,-6.99997 -7.21209,-11.66661 -4.56058,-4.66664 -10.92418,-6.99997 -6.25755,-2.33332 -13.57569,-2.33332 l -32.6665,0 z" />
        <path
           id="path4143"
           style="font-style:normal;font-variant:normal;font-weight:bold;font-stretch:normal;font-size:106.06005859px;line-height:125%;font-family:'.Helvetica Neue Desk UI';-inkscape-font-specification:'.Helvetica Neue Desk UI, Bold';text-align:start;writing-mode:lr-tb;text-anchor:start;fill:#703c24;fill-opacity:1"
           d="m 202.0887,846.4347 9.86358,-27.78774 0.21212,0 9.54541,27.78774 -19.62111,0 z m 1.5909,-46.45431 -28.63622,75.72689 16.75749,0 5.93936,-16.86355 28.31804,0 5.72724,16.86355 17.28779,0 -28.31803,-75.72689 -17.07567,0 z" />
        <path
           id="path4145"
           style="font-style:normal;font-variant:normal;font-weight:bold;font-stretch:normal;font-size:106.06005859px;line-height:125%;font-family:'.Helvetica Neue Desk UI';-inkscape-font-specification:'.Helvetica Neue Desk UI, Bold';text-align:start;writing-mode:lr-tb;text-anchor:start;fill:#703c24;fill-opacity:1"
           d="m 262.83211,813.98032 0,61.72696 16.65143,0 0,-61.72696 22.69685,0 0,-13.99993 -62.04513,0 0,13.99993 22.69685,0 z" />
        <path
           id="path4147"
           style="font-style:normal;font-variant:normal;font-weight:bold;font-stretch:normal;font-size:106.06005859px;line-height:125%;font-family:'.Helvetica Neue Desk UI';-inkscape-font-specification:'.Helvetica Neue Desk UI, Bold';text-align:start;writing-mode:lr-tb;text-anchor:start;fill:#703c24;fill-opacity:1"
           d="m 311.22283,799.98039 0,75.72689 57.48455,0 0,-13.99993 -40.83312,0 0,-18.56051 36.69678,0 0,-12.93933 -36.69678,0 0,-16.22719 39.98464,0 0,-13.99993 -56.63607,0 z" />
        <path
           id="path4149"
           style="font-style:normal;font-variant:normal;font-weight:bold;font-stretch:normal;font-size:106.06005859px;line-height:125%;font-family:'.Helvetica Neue Desk UI';-inkscape-font-specification:'.Helvetica Neue Desk UI, Bold';text-align:start;writing-mode:lr-tb;text-anchor:start;fill:#703c24;fill-opacity:1"
           d="m 428.2949,846.4347 9.86359,-27.78774 0.21212,0 9.5454,27.78774 -19.62111,0 z m 1.5909,-46.45431 -28.63621,75.72689 16.75749,0 5.93936,-16.86355 28.31804,0 5.72724,16.86355 17.28779,0 -28.31804,-75.72689 -17.07567,0 z" />
        <path
           id="path4151"
           style="font-style:normal;font-variant:normal;font-weight:bold;font-stretch:normal;font-size:106.06005859px;line-height:125%;font-family:'.Helvetica Neue Desk UI';-inkscape-font-specification:'.Helvetica Neue Desk UI, Bold';text-align:start;writing-mode:lr-tb;text-anchor:start;fill:#703c24;fill-opacity:1"
           d="m 498.56469,834.23779 0,-21.31807 18.24233,0 q 5.72724,0 8.59086,2.54544 2.86363,2.43938 2.86363,7.95451 0,5.72724 -2.86363,8.27268 -2.86362,2.54544 -8.59086,2.54544 l -18.24233,0 z m -16.65143,-34.2574 0,75.72689 16.65143,0 0,-29.59076 16.65143,0 q 6.25754,0 9.0151,2.75756 2.75756,2.75756 3.60605,8.69693 0.63636,4.56058 0.95454,9.5454 0.31818,4.98482 1.69696,8.59087 l 16.65143,0 q -1.16666,-1.59091 -1.80303,-3.81817 -0.5303,-2.33332 -0.84848,-4.87876 -0.21212,-2.54544 -0.31818,-4.98482 -0.10606,-2.43938 -0.21212,-4.2424 -0.21212,-2.86363 -0.84848,-5.72725 -0.5303,-2.86362 -1.80302,-5.19694 -1.27272,-2.43938 -3.28786,-4.13634 -2.01514,-1.80302 -5.09088,-2.6515 l 0,-0.21212 q 6.3636,-2.54545 9.12116,-7.42421 2.86362,-4.87876 2.86362,-11.56054 0,-4.34847 -1.5909,-8.06057 -1.48484,-3.81816 -4.45452,-6.68178 -2.86362,-2.86362 -6.99996,-4.45453 -4.03028,-1.69696 -9.12117,-1.69696 l -40.83312,0 z" />
        <path
           id="path4153"
           style="font-style:normal;font-variant:normal;font-weight:bold;font-stretch:normal;font-size:106.06005859px;line-height:125%;font-family:'.Helvetica Neue Desk UI';-inkscape-font-specification:'.Helvetica Neue Desk UI, Bold';text-align:start;writing-mode:lr-tb;text-anchor:start;fill:#703c24;fill-opacity:1"
           d="m 608.83565,825.43481 16.12113,0 q -0.74242,-6.57573 -3.60604,-11.66661 -2.86362,-5.09088 -7.31814,-8.4848 -4.34847,-3.49999 -9.96965,-5.30301 -5.51512,-1.80302 -11.77267,-1.80302 -8.69692,0 -15.69689,3.07574 -6.8939,3.07575 -11.6666,8.48481 -4.7727,5.40906 -7.31815,12.72721 -2.54544,7.21208 -2.54544,15.69688 0,8.27269 2.54544,15.48477 2.54545,7.10603 7.31815,12.40903 4.7727,5.303 11.6666,8.37874 6.99997,2.96969 15.69689,2.96969 6.99997,0 12.83327,-2.1212 5.8333,-2.12121 10.18177,-6.15149 4.34846,-4.03028 6.99996,-9.75752 2.6515,-5.72725 3.28786,-12.83327 l -16.12113,0 q -0.95454,7.63632 -5.303,12.30297 -4.2424,4.66664 -11.87873,4.66664 -5.62118,0 -9.5454,-2.1212 -3.92422,-2.22726 -6.36361,-5.83331 -2.43938,-3.60604 -3.60604,-8.06056 -1.0606,-4.56058 -1.0606,-9.33329 0,-4.98482 1.0606,-9.65146 1.16666,-4.66664 3.60604,-8.27269 2.43939,-3.7121 6.36361,-5.8333 3.92422,-2.22726 9.5454,-2.22726 3.07575,0 5.83331,1.0606 2.86362,0.95454 5.09088,2.75756 2.22726,1.80302 3.7121,4.2424 1.48484,2.33333 1.90908,5.19695 z" />
        <path
           id="path4155"
           style="font-style:normal;font-variant:normal;font-weight:bold;font-stretch:normal;font-size:106.06005859px;line-height:125%;font-family:'.Helvetica Neue Desk UI';-inkscape-font-specification:'.Helvetica Neue Desk UI, Bold';text-align:start;writing-mode:lr-tb;text-anchor:start;fill:#703c24;fill-opacity:1"
           d="m 636.86034,799.98039 0,75.72689 16.65143,0 0,-32.6665 30.65136,0 0,32.6665 16.65143,0 0,-75.72689 -16.65143,0 0,29.06046 -30.65136,0 0,-29.06046 -16.65143,0 z" />
        <path
           id="path4157"
           style="font-style:normal;font-variant:normal;font-weight:bold;font-stretch:normal;font-size:106.06005859px;line-height:125%;font-family:'.Helvetica Neue Desk UI';-inkscape-font-specification:'.Helvetica Neue Desk UI, Bold';text-align:start;writing-mode:lr-tb;text-anchor:start;fill:#703c24;fill-opacity:1"
           d="m 715.36968,799.98039 0,75.72689 16.65143,0 0,-75.72689 -16.65143,0 z" />
        <path
           id="path4159"
           style="font-style:normal;font-variant:normal;font-weight:bold;font-stretch:normal;font-size:106.06005859px;line-height:125%;font-family:'.Helvetica Neue Desk UI';-inkscape-font-specification:'.Helvetica Neue Desk UI, Bold';text-align:start;writing-mode:lr-tb;text-anchor:start;fill:#703c24;fill-opacity:1"
           d="m 781.65389,875.70728 25.13623,-75.72689 -17.18173,0 -17.07567,53.24215 -0.21212,0 -16.86355,-53.24215 -17.07567,0 24.49988,75.72689 18.77263,0 z" />
        <path
           id="path4161"
           style="font-style:normal;font-variant:normal;font-weight:bold;font-stretch:normal;font-size:106.06005859px;line-height:125%;font-family:'.Helvetica Neue Desk UI';-inkscape-font-specification:'.Helvetica Neue Desk UI, Bold';text-align:start;writing-mode:lr-tb;text-anchor:start;fill:#703c24;fill-opacity:1"
           d="m 813.35094,799.98039 0,75.72689 57.48455,0 0,-13.99993 -40.83312,0 0,-18.56051 36.69678,0 0,-12.93933 -36.69678,0 0,-16.22719 39.98464,0 0,-13.99993 -56.63607,0 z" />
        <path
           id="path4163"
           style="font-style:normal;font-variant:normal;font-weight:bold;font-stretch:normal;font-size:106.06005859px;line-height:125%;font-family:'.Helvetica Neue Desk UI';-inkscape-font-specification:'.Helvetica Neue Desk UI, Bold';text-align:start;writing-mode:lr-tb;text-anchor:start;fill:#703c24;fill-opacity:1"
           d="m 893.26553,850.57104 -16.12113,0 q -0.10606,6.99997 2.54544,12.09085 2.65151,5.09088 7.10603,8.37874 4.56058,3.28786 10.39388,4.77271 5.93937,1.5909 12.19691,1.5909 7.74238,0 13.57569,-1.80302 5.93936,-1.80303 9.86358,-4.98483 4.03029,-3.28786 6.04543,-7.74238 2.01514,-4.45452 2.01514,-9.65147 0,-6.3636 -2.75756,-10.39388 -2.65151,-4.13635 -6.36361,-6.57573 -3.7121,-2.43938 -7.53026,-3.49998 -3.7121,-1.16666 -5.8333,-1.5909 -7.10603,-1.80302 -11.56055,-2.96968 -4.34846,-1.16666 -6.89391,-2.33332 -2.43938,-1.16666 -3.28786,-2.54544 -0.84848,-1.37878 -0.84848,-3.60605 0,-2.43938 1.0606,-4.03028 1.0606,-1.5909 2.6515,-2.6515 1.69697,-1.0606 3.71211,-1.48484 2.01514,-0.42424 4.03028,-0.42424 3.07574,0 5.62118,0.5303 2.6515,0.5303 4.66664,1.80302 2.01515,1.27272 3.18181,3.49998 1.27272,2.22726 1.48484,5.62119 l 16.12113,0 q 0,-6.57573 -2.54545,-11.13631 -2.43938,-4.66664 -6.68178,-7.63632 -4.2424,-2.96969 -9.75752,-4.24241 -5.40907,-1.37878 -11.34843,-1.37878 -5.09088,0 -10.18177,1.37878 -5.09088,1.37878 -9.12116,4.24241 -4.03028,2.86362 -6.57572,7.21208 -2.43939,4.2424 -2.43939,10.07571 0,5.19694 1.90908,8.90904 2.01515,3.60604 5.19695,6.04542 3.1818,2.43938 7.21208,4.03029 4.03028,1.48484 8.27269,2.54544 4.13634,1.16666 8.16662,2.1212 4.03028,0.95454 7.21208,2.22726 3.18181,1.27272 5.09089,3.1818 2.01514,1.90908 2.01514,4.98482 0,2.86363 -1.48484,4.77271 -1.48484,1.80302 -3.7121,2.86362 -2.22727,1.0606 -4.77271,1.48484 -2.54544,0.31818 -4.7727,0.31818 -3.28786,0 -6.3636,-0.74242 -3.07574,-0.84848 -5.40907,-2.43938 -2.22726,-1.69696 -3.60604,-4.34846 -1.37878,-2.65151 -1.37878,-6.46967 z" />
      </g>
    </g>
  </g>
</svg>
